<svg width="96" height="64" viewBox="0 0 96 64" fill="none" xmlns="http://www.w3.org/2000/svg">
<path d="M24.8872 27.2949C16.9777 20.5204 12.6549 14.5632 14.3158 11.8348C16.9341 7.53364 33.4309 12.8848 51.1624 23.7869C68.8939 34.6891 81.1456 47.0138 78.5273 51.3149C76.8562 54.0601 69.5317 52.8734 59.8409 48.8211" stroke="#6E21D2" stroke-width="2"/>
<ellipse cx="46.4646" cy="30.8596" rx="22.9368" ry="22.7755" fill="#6E21D2"/>
<path fill-rule="evenodd" clip-rule="evenodd" d="M35.7605 23.912C35.7605 22.9972 36.5074 22.2556 37.4287 22.2556H55.7781C56.6994 22.2556 57.4462 22.9972 57.4462 23.912V38.8196C57.4462 39.7344 56.6994 40.476 55.7781 40.476H37.4287C36.5074 40.476 35.7605 39.7344 35.7605 38.8196V23.912ZM55.7781 23.912H37.4287V38.8196H55.7781V23.912Z" fill="#EDECEE"/>
<path fill-rule="evenodd" clip-rule="evenodd" d="M35.7605 26.3966C35.7605 25.9392 36.134 25.5684 36.5946 25.5684H56.6122C57.0728 25.5684 57.4462 25.9392 57.4462 26.3966C57.4462 26.854 57.0728 27.2248 56.6122 27.2248H36.5946C36.134 27.2248 35.7605 26.854 35.7605 26.3966Z" fill="#EDECEE"/>
<path fill-rule="evenodd" clip-rule="evenodd" d="M50.183 22.7986C49.7224 22.7993 49.3484 22.429 49.3478 21.9716C49.3465 21.093 48.9938 20.2509 48.3673 19.6305C47.7407 19.0101 46.8916 18.6623 46.0068 18.6636C45.1219 18.6649 44.2739 19.0151 43.6491 19.6373C43.0243 20.2595 42.674 21.1026 42.6753 21.9812C42.6759 22.4386 42.303 22.8099 41.8424 22.8106C41.3818 22.8113 41.0078 22.441 41.0071 21.9836C41.0053 20.6657 41.5307 19.401 42.4678 18.4677C43.405 17.5345 44.6771 17.0091 46.0044 17.0072C47.3316 17.0053 48.6053 17.527 49.5451 18.4576C50.485 19.3881 51.014 20.6513 51.0159 21.9692C51.0166 22.4266 50.6437 22.7979 50.183 22.7986Z" fill="#EDECEE"/>
<path fill-rule="evenodd" clip-rule="evenodd" d="M50.183 25.7986C49.7224 25.7993 49.5007 25.9574 49.5 25.5C49.4987 24.6214 48.9938 23.2509 48.3673 22.6305C47.7407 22.0101 46.8916 21.6623 46.0068 21.6636C45.1219 21.6649 44.2739 22.0151 43.6491 22.6373C43.0243 23.2595 42.4987 24.6214 42.5 25.5C42.5007 25.9574 42.303 25.8099 41.8424 25.8106C41.3818 25.8113 41.0007 25.9574 41 25.5C40.9981 24.1821 41.5307 22.401 42.4678 21.4677C43.405 20.5345 44.6771 20.0091 46.0044 20.0072C47.3316 20.0053 48.6053 20.527 49.5451 21.4576C50.485 22.3881 50.9981 24.1821 51 25.5C51.0007 25.9574 50.6437 25.7979 50.183 25.7986Z" fill="#EDECEE"/>
<path d="M24.4287 27C25.7544 28.1531 27.182 29.3303 28.7001 30.5199M59.2169 48.7925C57.3967 48.015 55.4933 47.135 53.5285 46.16" stroke="#F7F7F8" stroke-width="2"/>
<line x1="43.5" y1="31" x2="43.5" y2="35" stroke="white"/>
<line x1="49.5" y1="31" x2="49.5" y2="35" stroke="white"/>
</svg>
